<svg width="27" height="11" viewBox="0 0 27 11" fill="none" xmlns="http://www.w3.org/2000/svg">
<path d="M3.71638 0C1.54618 0 0 1.48378 0 3.51531V3.52918C0 5.42897 1.34511 6.82955 3.2657 6.82955C4.63855 6.82955 5.51217 6.12926 5.87965 5.33884H6.01832C6.01832 5.4151 6.01139 5.49137 6.01139 5.56764C5.93512 7.4813 5.26257 9.03442 3.67478 9.03442C2.79422 9.03442 2.17714 8.5768 1.91366 7.87652L1.89286 7.80718H0.131738L0.145605 7.88345C0.464548 9.41576 1.83739 10.5043 3.67478 10.5043C6.19166 10.5043 7.71011 8.50747 7.71011 5.13776V5.1239C7.71011 1.51845 5.85192 0 3.71638 0ZM3.70945 5.45671C2.57235 5.45671 1.74726 4.62468 1.74726 3.46678V3.45291C1.74726 2.33661 2.62782 1.45605 3.73025 1.45605C4.83962 1.45605 5.70631 2.35047 5.70631 3.49451V3.50838C5.70631 4.63855 4.83962 5.45671 3.70945 5.45671Z" fill="white"/>
<path d="M10.5739 3.77185C11.2118 3.77185 11.6764 3.2865 11.6764 2.67635C11.6764 2.05927 11.2118 1.58085 10.5739 1.58085C9.94299 1.58085 9.47151 2.05927 9.47151 2.67635C9.47151 3.2865 9.94299 3.77185 10.5739 3.77185ZM10.5739 8.91655C11.2118 8.91655 11.6764 8.43813 11.6764 7.82105C11.6764 7.20396 11.2118 6.72555 10.5739 6.72555C9.94299 6.72555 9.47151 7.20396 9.47151 7.82105C9.47151 8.43813 9.94299 8.91655 10.5739 8.91655Z" fill="white"/>
<path d="M18.2913 10.2547H20.0039V8.33413H21.349V6.85728H20.0039V0.249608H17.4731C16.1141 2.31581 14.6928 4.61775 13.3962 6.87115V8.33413H18.2913V10.2547ZM15.0602 6.89889V6.79488C16.0309 5.09616 17.1888 3.2449 18.215 1.67792H18.319V6.89889H15.0602Z" fill="white"/>
<path d="M25.2112 10.2547H27.0001V0.249608H25.2182L22.6042 2.087V3.77185L25.0934 2.01073H25.2112V10.2547Z" fill="white"/>
</svg>
